<svg width="287" height="65" viewBox="0 0 287 65" fill="none" xmlns="http://www.w3.org/2000/svg">
<path d="M38.76 28.384C37.544 28.32 35.88 28.16 33.768 27.904C29.8 27.52 26.6 27.328 24.168 27.328H21V14.272C25.544 14.272 29.864 14.592 33.96 15.232L38.76 16.096V28.384ZM24.84 49.12C24.84 48.16 24.68 47.552 24.36 47.296C24.04 47.04 23.368 46.848 22.344 46.72L11.976 45.28C9.416 44.896 7.336 44.288 5.736 43.456C4.2 42.624 3.048 41.504 2.28 40.096C1.512 38.88 1 37.408 0.744 35.68C0.488 33.952 0.36 31.808 0.36 29.248C0.36 24 1.928 20.16 5.064 17.728C7.688 15.808 11.656 14.688 16.968 14.368V29.44C16.968 30.4 17.096 31.04 17.352 31.36C17.608 31.616 18.408 31.84 19.752 32.032L31.272 33.568C32.936 33.76 34.376 34.112 35.592 34.624C36.808 35.072 37.832 35.776 38.664 36.736C40.52 38.784 41.448 42.72 41.448 48.544C41.448 54.688 39.88 58.976 36.744 61.408C33.992 63.456 30.024 64.544 24.84 64.672V49.12ZM20.808 64.768C15.688 64.704 11.208 64.384 7.368 63.808L1.896 62.944V50.656C4.456 50.912 7.912 51.168 12.264 51.424C14.696 51.552 16.424 51.616 17.448 51.616H20.808V64.768ZM77.6445 39.616C77.6445 36.352 77.6125 34.176 77.5485 33.088C77.4845 31.552 77.2925 30.4 76.9725 29.632C76.6525 28.8 76.1405 28.288 75.4365 28.096C74.6685 27.904 73.6125 27.808 72.2685 27.808H70.9245V14.272H72.2685C77.8365 14.272 82.1885 14.72 85.3245 15.616C88.4605 16.448 90.7965 17.856 92.3325 19.84C93.7405 21.632 94.6365 24.032 95.0205 27.04C95.4685 29.984 95.6925 34.176 95.6925 39.616C95.6925 44.672 95.5325 48.608 95.2125 51.424C94.9565 54.176 94.2845 56.448 93.1965 58.24C91.9805 60.224 90.1565 61.728 87.7245 62.752C85.2925 63.712 81.9325 64.32 77.6445 64.576V39.616ZM72.2685 64.768C66.7005 64.768 62.3485 64.352 59.2125 63.52C56.0765 62.688 53.7405 61.28 52.2045 59.296C50.7965 57.504 49.8685 55.136 49.4205 52.192C49.0365 49.248 48.8445 45.056 48.8445 39.616C48.8445 34.624 49.0045 30.72 49.3245 27.904C49.6445 25.088 50.3485 22.752 51.4365 20.896C52.5885 18.848 54.3805 17.344 56.8125 16.384C59.2445 15.36 62.6045 14.72 66.8925 14.464V39.616C66.8925 42.88 66.9245 45.024 66.9885 46.048C67.0525 47.584 67.2445 48.736 67.5645 49.504C67.8845 50.272 68.4285 50.752 69.1965 50.944C69.8365 51.136 70.8605 51.232 72.2685 51.232H73.6125V64.768H72.2685ZM132.582 39.616C132.582 36.352 132.55 34.176 132.486 33.088C132.422 31.552 132.23 30.4 131.91 29.632C131.59 28.8 131.078 28.288 130.374 28.096C129.606 27.904 128.55 27.808 127.206 27.808H125.862V14.272H127.206C132.774 14.272 137.126 14.72 140.262 15.616C143.398 16.448 145.734 17.856 147.27 19.84C148.678 21.632 149.574 24.032 149.958 27.04C150.406 29.984 150.63 34.176 150.63 39.616C150.63 44.672 150.47 48.608 150.15 51.424C149.894 54.176 149.222 56.448 148.134 58.24C146.918 60.224 145.094 61.728 142.662 62.752C140.23 63.712 136.87 64.32 132.582 64.576V39.616ZM127.206 64.768C121.638 64.768 117.286 64.352 114.15 63.52C111.014 62.688 108.678 61.28 107.142 59.296C105.734 57.504 104.806 55.136 104.358 52.192C103.974 49.248 103.782 45.056 103.782 39.616C103.782 34.624 103.942 30.72 104.262 27.904C104.582 25.088 105.286 22.752 106.374 20.896C107.526 18.848 109.318 17.344 111.75 16.384C114.182 15.36 117.542 14.72 121.83 14.464V39.616C121.83 42.88 121.862 45.024 121.926 46.048C121.99 47.584 122.182 48.736 122.502 49.504C122.822 50.272 123.366 50.752 124.134 50.944C124.774 51.136 125.798 51.232 127.206 51.232H128.55V64.768H127.206ZM155.947 15.04H164.971V0.831995H182.731V15.04H193.483V28.576H155.947V15.04ZM164.971 32.416H182.731V64H164.971V32.416ZM220.447 34.72H227.167C227.167 31.136 226.815 28.832 226.111 27.808C225.727 27.232 225.215 26.88 224.575 26.752C223.935 26.56 223.007 26.464 221.791 26.464H220.447V14.272H221.791C227.295 14.272 231.519 14.72 234.463 15.616C237.471 16.512 239.679 17.984 241.087 20.032C242.367 21.824 243.135 24.128 243.391 26.944C243.711 29.76 243.871 33.984 243.871 39.616V43.456H220.447V34.72ZM223.711 64.768C217.823 64.768 213.183 64.288 209.791 63.328C206.463 62.304 203.967 60.704 202.303 58.528C200.831 56.608 199.871 54.24 199.423 51.424C198.975 48.544 198.751 44.608 198.751 39.616C198.751 35.008 198.911 31.36 199.231 28.672C199.551 25.92 200.223 23.584 201.247 21.664C202.399 19.552 204.159 17.92 206.527 16.768C208.959 15.552 212.255 14.784 216.415 14.464V43.456C216.415 45.632 216.511 47.2 216.703 48.16C216.895 49.056 217.343 49.728 218.047 50.176C218.815 50.688 219.999 50.976 221.599 51.04C223.647 51.168 225.823 51.232 228.127 51.232C232.223 51.232 235.199 51.136 237.055 50.944L241.951 50.56V62.944C239.391 63.712 235.871 64.224 231.391 64.48C229.215 64.672 226.655 64.768 223.711 64.768ZM275.42 17.824C276.764 16.544 278.332 15.648 280.124 15.136C281.98 14.56 284.252 14.272 286.94 14.272V30.304C284.06 30.304 281.692 30.496 279.836 30.88C278.044 31.264 276.572 31.936 275.42 32.896V17.824ZM253.628 15.04H271.388V64H253.628V15.04Z" fill="#ECECEC"/>
</svg>
